
      <svg data-logo="logo" xmlns="http://www.w3.org/2000/svg" viewBox="0 0 265 43">
        <g id="logogram" transform="translate(0, 1) rotate(0)"><path d="M65.2314 9.32458C62.3969 6.45393 59.0318 4.17673 55.3285 2.62316C51.625 1.06959 47.6558 0.269989 43.6472 0.269989C39.6386 0.269989 35.6694 1.06959 31.966 2.62316C28.2626 4.17673 24.8976 6.45393 22.0631 9.32458L43.6472 31.1841L65.2314 9.32458Z" fill="#FFD200"/><path d="M43.6743 31.2155C46.5088 34.0862 49.8737 36.3632 53.5772 37.9168C57.2805 39.4704 61.2499 40.27 65.2584 40.27C69.2668 40.27 73.2366 39.4704 76.9399 37.9168C80.6431 36.3632 84.0085 34.0862 86.8428 31.2155L65.2584 9.35593L43.6743 31.2155Z" fill="#06E07F"/><path d="M43.6209 31.2107C40.7864 34.0814 37.4214 36.3585 33.718 37.912C30.0146 39.4656 26.0454 40.2652 22.0368 40.2652C18.0282 40.2652 14.059 39.4656 10.3555 37.912C6.65217 36.3585 3.28711 34.0814 0.452637 31.2107L22.0368 9.35114L43.6209 31.2107Z" fill="#E3073C"/><path d="M65.2847 9.3293C68.1188 6.45865 71.4842 4.18156 75.1875 2.62798C78.8907 1.07441 82.8605 0.274811 86.8686 0.274811C90.8777 0.274811 94.8465 1.07441 98.5498 2.62798C102.253 4.18156 105.618 6.45865 108.453 9.3293L86.8686 31.1889L65.2847 9.3293Z" fill="#1F84EF"/></g>
        <g id="logotype" transform="translate(115, 5)"><path fill="#ea781a" d="M33.21 22.69L33.21 22.69L33.34 23.34Q33.34 23.75 32.92 24.32L32.92 24.32Q31.79 25.79 29.30 27.69Q26.82 29.60 25.64 29.60Q24.46 29.60 23.79 28.91Q23.12 28.21 23.12 27.33L23.12 27.33Q23.12 26.27 25.35 22.64L25.35 22.64Q28.68 17.26 33.86 10.06L33.86 10.06Q32.76 11.19 28.05 16.15L28.05 16.15Q17.60 27.09 15.84 28.54L15.84 28.54Q15.55 28.78 15.00 28.78Q14.44 28.78 13.83 28.32Q13.21 27.87 13.21 27.31L13.21 27.31L13.21 27.22Q13.28 26.50 16.51 20.20Q19.74 13.89 21.93 10.17L21.93 10.17Q18.70 13.72 15.40 18.10L15.40 18.10Q9.13 26.40 6.22 32.25L6.22 32.25Q5.97 32.79 5.59 32.79Q5.21 32.79 4.50 32.61L4.50 32.61Q2.99 32.20 2.99 31.17L2.99 31.17Q2.99 30.56 5.50 26.77Q8.02 22.98 11.33 18.50Q14.65 14.01 18.20 9.86L18.20 9.86Q23.11 4.12 24.51 4.12L24.51 4.12Q24.73 4.12 24.94 4.23Q25.14 4.34 25.19 4.34Q25.24 4.34 25.29 4.29L25.29 4.29Q25.52 4.01 26.17 4.01Q26.83 4.01 27.46 4.27Q28.08 4.53 28.08 4.85L28.08 4.85Q28.08 5.06 26.37 8.12L26.37 8.12Q20.65 18.27 18.68 22.06L18.68 22.06Q20.56 19.79 24.06 16.03Q27.55 12.27 31.40 8.53L31.40 8.53Q36.40 3.67 37.38 3.67L37.38 3.67Q37.77 3.67 38.37 3.84L38.37 3.84Q39.43 4.15 40.40 4.15L40.40 4.15Q40.68 4.20 40.87 4.38Q41.07 4.56 41.07 4.75Q41.07 4.94 40.97 5.06L40.97 5.06Q35.41 12.44 31.60 18.08Q27.79 23.72 26.90 25.70L26.90 25.70Q28.70 25.33 32.25 21.41L32.25 21.41Q32.40 21.21 32.47 21.14Q32.54 21.07 32.59 21.00L32.59 21.00Q32.88 20.66 33.04 21.43L33.04 21.43Q33.10 21.87 33.13 22.05Q33.16 22.23 33.18 22.43Q33.21 22.63 33.21 22.69ZM45.85 16.22L45.85 16.22Q45.85 17.34 44.94 18.20Q44.02 19.05 42.86 19.05L42.86 19.05Q42.49 19.05 42.37 18.87Q42.25 18.69 42.25 18.40Q42.25 18.11 42.32 17.84L42.32 17.84Q41.70 18.05 40.95 18.47Q40.20 18.90 39.10 19.74Q38.01 20.57 38.01 20.98L38.01 20.98Q38.01 21.12 38.41 21.12Q38.81 21.12 39.65 20.84Q40.49 20.56 40.82 20.56Q41.15 20.56 41.26 20.59L41.26 20.59Q41.48 20.71 41.73 21.11Q41.99 21.51 41.99 21.75Q41.99 21.98 41.55 22.35Q41.10 22.73 40.54 22.92Q39.97 23.12 39.79 23.22L39.79 23.22Q36.18 25.24 36.18 25.99L36.18 25.99Q36.18 27.33 38.45 27.33L38.45 27.33Q39.91 27.33 41.38 26.40L41.38 26.40Q42.62 25.62 43.62 24.80Q44.62 23.99 44.89 23.80Q45.15 23.62 45.29 23.62L45.29 23.62Q45.73 23.62 45.73 24.61Q45.73 25.60 45.61 25.92Q45.49 26.23 44.93 26.69L44.93 26.69Q41.27 29.67 38.01 29.67L38.01 29.67Q36.27 29.67 35.22 29.19L35.22 29.19Q33.31 28.32 33.31 26.52L33.31 26.52Q33.31 24.16 36.57 22.95L36.57 22.95Q35.92 22.66 35.74 22.21Q35.55 21.75 35.55 20.75Q35.55 19.75 36.48 18.64Q37.41 17.52 38.76 16.80L38.76 16.80Q41.77 15.17 44.13 15.17L44.13 15.17Q44.69 15.17 45.27 15.45Q45.85 15.72 45.85 16.22ZM66.67 3.38Q66.99 3.38 67.18 3.59Q67.37 3.79 67.37 4.01Q67.37 4.22 67.04 4.79Q66.70 5.36 65.51 7.29Q64.31 9.21 63.64 10.30L63.64 10.30Q59.76 16.61 57.56 20.97Q55.36 25.33 55.36 26.23L55.36 26.23L55.36 26.37Q55.36 27.07 55.87 27.07Q56.38 27.07 57.11 26.59Q57.83 26.11 58.38 25.56Q58.93 25.02 59.48 24.43Q60.04 23.84 60.16 23.74Q60.28 23.63 60.47 23.63L60.47 23.63Q60.76 23.63 60.84 24.00Q60.93 24.37 60.93 25.03Q60.93 25.68 60.82 25.89L60.82 25.89Q60.33 26.85 58.65 28.22Q56.96 29.60 55.46 29.60L55.46 29.60Q52.89 29.60 52.89 27.43L52.89 27.43Q52.89 26.08 53.92 23.89L53.92 23.89Q52.54 25.68 51.10 26.95L51.10 26.95Q48.43 29.27 46.47 29.27L46.47 29.27Q45.38 29.27 44.85 28.50Q44.33 27.74 44.33 26.29Q44.33 24.85 45.46 22.83Q46.59 20.81 48.27 19.20Q49.96 17.58 52.01 16.50Q54.06 15.41 55.78 15.41L55.78 15.41Q56.33 15.41 57.06 16.08L57.06 16.08Q57.56 15.29 58.89 12.94L58.89 12.94Q63.08 5.88 64.43 4.32L64.43 4.32Q65.15 3.38 66.67 3.38L66.67 3.38ZM56.02 17.69L56.02 17.69Q53.56 18.23 51.44 19.98Q49.32 21.72 48.26 23.63Q47.20 25.53 47.20 26.09Q47.20 26.66 47.44 26.66L47.44 26.66Q48.47 26.66 52.52 22.08L52.52 22.08Q54.54 19.82 56.02 17.69ZM70.74 10.24L70.74 10.24Q70.74 11.21 69.83 12.19Q68.92 13.17 67.94 13.17Q66.96 13.17 66.96 12.15Q66.96 11.12 67.82 10.19Q68.69 9.26 69.73 9.26L69.73 9.26Q70.19 9.26 70.46 9.52Q70.74 9.77 70.74 10.24ZM67.97 25.15L67.97 25.15Q67.97 25.67 67.87 25.89L67.87 25.89Q67.03 27.60 65.20 28.65Q63.37 29.70 62.02 29.70Q60.67 29.70 59.70 28.79Q58.72 27.89 58.72 26.95Q58.72 26.01 59.66 24.21Q60.60 22.42 61.54 20.90Q62.48 19.38 62.48 19.25Q62.48 19.12 62.13 18.75Q61.78 18.37 61.78 18.19Q61.78 18.01 62.49 17.25Q63.20 16.49 64.22 15.75Q65.23 15.00 65.77 15.00Q66.31 15.00 66.74 15.48Q67.16 15.96 67.16 16.35Q67.16 16.75 63.10 23.75L63.10 23.75Q63.05 23.86 62.82 24.21Q62.58 24.56 62.46 24.79Q62.33 25.02 62.16 25.34L62.16 25.34Q61.82 26.03 61.82 26.49L61.82 26.49Q61.82 27.07 62.60 27.07Q63.39 27.07 64.23 26.53Q65.08 25.99 65.69 25.34L65.69 25.34Q67.30 23.62 67.52 23.62L67.52 23.62Q67.97 23.62 67.97 25.15ZM79.74 16.01L79.74 16.01Q81.04 16.01 81.04 16.90L81.04 16.90Q81.04 17.38 80.82 17.60Q80.60 17.82 79.87 19.08Q79.14 20.34 78.26 22.29Q77.38 24.25 77.13 25.63L77.13 25.63Q77.08 25.80 77.08 26.11L77.08 26.11Q77.08 27.05 77.59 27.05Q78.10 27.05 78.80 26.56Q79.50 26.08 80.05 25.52Q80.60 24.97 81.12 24.39Q81.64 23.80 81.74 23.72Q81.84 23.63 82.05 23.63L82.05 23.63Q82.37 23.63 82.44 24.13Q82.51 24.63 82.51 25.15Q82.51 25.68 82.41 25.89L82.41 25.89Q81.91 26.86 80.23 28.23Q78.55 29.60 77.17 29.60Q75.79 29.60 75.15 28.76Q74.50 27.92 74.50 26.91Q74.50 25.89 74.84 25.12L74.84 25.12Q73.42 26.97 71.58 28.25Q69.75 29.53 68.58 29.53Q67.42 29.53 66.69 28.83L66.69 28.83Q65.75 27.96 65.75 26.41Q65.75 24.86 66.44 23.30Q67.13 21.74 68.26 20.45Q69.39 19.16 70.74 18.10L70.74 18.10Q73.57 15.88 75.97 15.88L75.97 15.88Q76.89 15.88 77.47 16.18Q78.05 16.49 78.20 16.95L78.20 16.95Q78.61 16.34 78.90 16.17Q79.18 16.01 79.74 16.01ZM77.47 17.91L77.47 17.91Q74.55 17.91 71.42 21.16L71.42 21.16Q70.31 22.32 69.38 23.94Q68.45 25.56 68.45 26.16Q68.45 26.76 68.79 26.76L68.79 26.76Q69.27 26.76 71.45 24.87Q73.64 22.98 74.36 22.10L74.36 22.10Q75.15 21.10 77.47 17.91ZM89.01 23.57L89.01 23.57L88.92 23.92Q88.92 24.03 89.01 24.11Q89.11 24.20 89.24 24.20Q89.38 24.20 89.47 24.06L89.47 24.06Q92.01 20.68 93.69 18.11Q95.36 15.53 96.14 14.32Q96.92 13.11 97.38 12.39L97.38 12.39Q98.61 10.51 99.82 9.02L99.82 9.02Q95.21 10.18 92.59 10.18Q89.98 10.18 88.83 9.85Q87.69 9.52 87.33 9.10Q86.97 8.68 86.97 8.24Q86.97 7.81 87.01 7.40L87.01 7.40Q87.07 6.54 88.04 6.00Q89.01 5.45 89.64 5.45Q90.27 5.45 90.27 5.64Q90.27 5.83 89.99 6.14Q89.71 6.46 89.71 6.58L89.71 6.58Q89.71 7.13 93.65 7.13Q97.60 7.13 102.73 6.08L102.73 6.08Q105.67 3.69 107.80 3.69L107.80 3.69Q109.22 3.69 109.68 4.49L109.68 4.49Q109.99 4.97 109.99 5.45Q109.99 5.93 109.44 6.41Q108.88 6.89 107.94 7.23L107.94 7.23Q106.23 7.84 103.91 8.20L103.91 8.20Q102.93 9.45 101.15 12.08Q99.36 14.71 98.71 15.64Q98.06 16.56 96.62 18.92Q95.17 21.28 94.12 22.99Q93.06 24.71 91.86 26.39L91.86 26.39Q89.42 29.84 87.50 29.84L87.50 29.84Q86.70 29.84 86.12 29.41Q85.54 28.98 85.54 28.02Q85.54 27.05 86.60 25.61Q87.67 24.16 88.17 23.75Q88.66 23.34 88.83 23.34Q89.01 23.34 89.01 23.57ZM112.40 15.98Q112.91 15.98 113.45 16.44Q113.99 16.90 113.99 17.85Q113.99 18.80 113.32 20.31Q112.66 21.82 111.50 23.39Q110.33 24.95 108.94 26.33Q107.55 27.70 105.93 28.58Q104.32 29.46 103.00 29.46Q101.69 29.46 100.89 28.63Q100.10 27.80 100.10 26.33Q100.10 24.85 100.82 23.05Q101.55 21.26 102.69 19.88Q103.84 18.51 105.17 17.41L105.17 17.41Q107.96 15.17 110.06 15.17L110.06 15.17Q111 15.17 111.48 15.64L111.48 15.64Q111.65 15.79 111.65 15.91L111.65 15.91L111.65 16.01Q111.89 15.98 112.40 15.98ZM110.68 18.25L110.68 18.25L110.56 18.25Q109.96 18.25 109.96 17.38L109.96 17.38Q108.71 17.79 107.34 18.81Q105.98 19.84 104.90 21.24L104.90 21.24Q102.71 24.04 102.68 25.98L102.68 25.98Q102.68 26.93 103.38 26.93Q104.08 26.93 105.46 26.01Q106.85 25.09 108.21 23.38Q109.56 21.67 110.24 20.41Q110.91 19.16 110.91 18.70Q110.91 18.25 110.68 18.25ZM125.22 15.98Q125.73 15.98 126.27 16.44Q126.81 16.90 126.81 17.85Q126.81 18.80 126.14 20.31Q125.48 21.82 124.31 23.39Q123.15 24.95 121.76 26.33Q120.37 27.70 118.75 28.58Q117.14 29.46 115.82 29.46Q114.50 29.46 113.71 28.63Q112.91 27.80 112.91 26.33Q112.91 24.85 113.64 23.05Q114.37 21.26 115.51 19.88Q116.66 18.51 117.99 17.41L117.99 17.41Q120.78 15.17 122.88 15.17L122.88 15.17Q123.82 15.17 124.30 15.64L124.30 15.64Q124.47 15.79 124.47 15.91L124.47 15.91L124.47 16.01Q124.71 15.98 125.22 15.98ZM123.49 18.25L123.49 18.25L123.37 18.25Q122.77 18.25 122.77 17.38L122.77 17.38Q121.53 17.79 120.16 18.81Q118.79 19.84 117.72 21.24L117.72 21.24Q115.53 24.04 115.49 25.98L115.49 25.98Q115.49 26.93 116.20 26.93Q116.90 26.93 118.28 26.01Q119.66 25.09 121.02 23.38Q122.38 21.67 123.06 20.41Q123.73 19.16 123.73 18.70Q123.73 18.25 123.49 18.25ZM140.60 3.35Q141.42 3.35 142.04 3.84Q142.67 4.32 142.67 5.28Q142.67 6.24 141.61 8.28Q140.55 10.32 139.06 12.45Q137.57 14.58 135.69 16.97L135.69 16.97Q132.72 20.76 129.99 23.79L129.99 23.79Q129.97 23.99 129.84 24.55Q129.71 25.10 129.71 25.67Q129.71 26.23 130.23 26.68Q130.76 27.14 131.52 27.14Q132.29 27.14 133.17 26.59Q134.05 26.04 134.70 25.38L134.70 25.38Q136.41 23.62 136.82 23.62Q137.23 23.62 137.23 24.86L137.23 24.86L137.23 25.21Q137.23 25.87 136.99 26.18L136.99 26.18Q135.56 27.94 133.76 28.80Q131.97 29.67 130.36 29.67Q128.76 29.67 127.92 28.68Q127.08 27.70 127.08 25.99L127.08 25.99Q127.08 22.66 128.87 18.16Q130.65 13.65 132.89 10.49L132.89 10.49Q137.93 3.35 140.60 3.35L140.60 3.35ZM139.83 6.19L139.83 6.19Q139.83 5.93 139.66 5.93L139.66 5.93Q139.06 5.93 136.52 9.35Q133.97 12.76 132.83 14.80Q131.70 16.83 130.69 19.91L130.69 19.91Q132.70 17.52 136.27 12.45Q139.83 7.38 139.83 6.19ZM137.34 25.58L137.34 25.58L137.32 25.86Q137.32 26.28 137.64 26.59Q137.97 26.90 138.24 26.90L138.24 26.90Q140.29 26.90 141.87 26.28Q143.45 25.67 143.45 25.05L143.45 25.05Q143.45 24.76 142.88 24.55Q142.31 24.33 140.95 24.02Q139.59 23.70 138.98 23.52Q138.36 23.34 138.00 23.19Q137.64 23.04 137.27 22.76L137.27 22.76Q136.46 22.20 136.46 21.08Q136.46 19.96 137.29 18.86Q138.12 17.75 139.37 16.97Q140.62 16.18 142.05 15.58L142.05 15.58Q144.89 14.41 146.82 14.41L146.82 14.41Q148.72 14.41 149.16 15.23L149.16 15.23Q149.30 15.52 149.30 15.88L149.30 15.88L149.30 15.99Q149.30 16.90 148.91 17.41Q148.53 17.93 147.70 18.34Q146.87 18.75 146.38 18.75Q145.90 18.75 145.77 18.68Q145.64 18.61 145.56 18.50Q145.47 18.39 145.34 18.34Q145.21 18.28 145.21 18.08Q145.21 17.87 145.38 17.66Q145.56 17.45 145.62 17.21L145.62 17.21Q144.50 17.26 143.27 17.73Q142.04 18.20 141.16 18.78Q140.27 19.36 139.69 19.89Q139.11 20.42 139.11 20.67Q139.11 20.92 139.90 21.07L139.90 21.07Q143.44 21.77 144.55 22.28Q145.66 22.80 146.09 23.45Q146.51 24.10 146.51 24.63L146.51 24.63Q146.51 25.72 145.64 26.69Q144.77 27.67 143.49 28.28L143.49 28.28Q140.74 29.63 138.69 29.63Q136.65 29.63 135.87 29.01Q135.10 28.38 135.10 27.53Q135.10 26.68 135.53 25.95Q135.97 25.22 136.65 25.22Q137.34 25.22 137.34 25.58Z"/></g>
        
      </svg>
    